<svg id="Layer_1" data-name="Layer 1" xmlns="http://www.w3.org/2000/svg" viewBox="0 0 213.48 38.84"><defs><style>.cls-1,.cls-2{fill:#fff;}.cls-1{stroke:#fff;stroke-linecap:round;stroke-linejoin:round;stroke-width:0.5px;}</style></defs><title>logo-2</title><path d="M32.32,33.3" transform="translate(-0.5 -0.5)"/><polygon class="cls-1" points="1.66 38.53 3.92 38.53 3.92 38.02 2.24 38.02 2.24 34.49 1.66 34.49 1.66 38.53"/><path class="cls-1" d="M8.76,39h.6l.41-1h2l.41,1h.63l-1.7-4h-.6Zm2.8-1.49H10l.8-2Z" transform="translate(-0.5 -0.5)"/><path class="cls-1" d="M17.48,39h1.07c.82,0,1.53-.21,1.53-1.08a.94.94,0,0,0-.93-1h0A.94.94,0,0,0,20,36c0-.75-.58-1-1.41-1H17.48Zm.57-1.84h.37c.49,0,1,.09,1,.71s-.47.65-1,.65h-.43Zm0-1.73h.6c.33,0,.74.12.74.6s-.47.65-1,.65H18V35.46Z" transform="translate(-0.5 -0.5)"/><polygon class="cls-1" points="24.71 38.53 26.96 38.53 26.96 38.02 25.29 38.02 25.29 36.69 26.81 36.69 26.81 36.18 25.29 36.18 25.29 35 26.96 35 26.96 34.49 24.71 34.49 24.71 38.53"/><polygon class="cls-1" points="32.03 38.53 34.29 38.53 34.29 38.02 32.61 38.02 32.61 34.49 32.03 34.49 32.03 38.53"/><path class="cls-1" d="M41.47,35.06a2.64,2.64,0,0,0-.86-.15c-.72,0-1.29.38-1.29,1.1,0,1.26,1.73,1,1.73,1.91a.72.72,0,0,1-.79.66,2.41,2.41,0,0,1-.83-.2l-.06.54a2.55,2.55,0,0,0,.82.17c.81,0,1.47-.34,1.47-1.2,0-1.33-1.73-1.15-1.73-1.93,0-.42.38-.54.7-.54a1.68,1.68,0,0,1,.75.17Z" transform="translate(-0.5 -0.5)"/><path class="cls-1" d="M54.51,39h.6l.41-1h2l.41,1h.63l-1.7-4h-.6Zm2.8-1.49h-1.6l.8-2Z" transform="translate(-0.5 -0.5)"/><polygon class="cls-1" points="62.76 38.53 63.33 38.53 63.33 35.21 63.34 35.21 65.16 38.53 65.9 38.53 65.9 34.49 65.32 34.49 65.32 37.74 65.31 37.74 63.54 34.49 62.76 34.49 62.76 38.53"/><path class="cls-1" d="M71.54,39h1.18A1.91,1.91,0,0,0,74.86,37a2,2,0,0,0-2.14-2H71.54Zm.57-3.53h.67A1.41,1.41,0,0,1,74.25,37a1.36,1.36,0,0,1-1.54,1.52h-.6Z" transform="translate(-0.5 -0.5)"/><polygon class="cls-1" points="87.73 38.53 88.3 38.53 88.3 35.21 88.31 35.21 90.13 38.53 90.87 38.53 90.87 34.49 90.29 34.49 90.29 37.74 90.28 37.74 88.51 34.49 87.73 34.49 87.73 38.53"/><path class="cls-1" d="M96.1,39h.61l.41-1h2l.41,1h.63l-1.7-4h-.6Zm2.8-1.49H97.3l.8-2Z" transform="translate(-0.5 -0.5)"/><polygon class="cls-1" points="104.36 38.53 104.93 38.53 104.93 35.03 104.95 35.03 106.27 38.53 106.84 38.53 108.17 35.03 108.18 35.03 108.18 38.53 108.75 38.53 108.75 34.49 107.8 34.49 106.57 37.85 105.31 34.49 104.36 34.49 104.36 38.53"/><polygon class="cls-1" points="113.97 38.53 116.22 38.53 116.22 38.02 114.54 38.02 114.54 36.69 116.07 36.69 116.07 36.18 114.54 36.18 114.54 35 116.22 35 116.22 34.49 113.97 34.49 113.97 38.53"/><path class="cls-1" d="M122.33,35.5h.49c.36,0,.89.18.89.7a.73.73,0,0,1-.81.71h-.57ZM121.76,39h.58V37.41h.56c.73,0,1.42-.32,1.42-1.22S123.64,35,122.81,35h-1Z" transform="translate(-0.5 -0.5)"/><polygon class="cls-1" points="128.64 38.53 130.9 38.53 130.9 38.02 129.22 38.02 129.22 34.49 128.64 34.49 128.64 38.53"/><path class="cls-1" d="M135.74,39h.6l.41-1h2l.41,1h.63l-1.7-4h-.6Zm2.79-1.49h-1.6l.8-2Z" transform="translate(-0.5 -0.5)"/><polygon class="cls-1" points="144.36 38.53 144.94 38.53 144.94 35 146.19 35 146.19 34.49 143.12 34.49 143.12 35 144.36 35 144.36 38.53"/><polygon class="cls-1" points="150.95 38.53 153.2 38.53 153.2 38.02 151.52 38.02 151.52 36.69 153.05 36.69 153.05 36.18 151.52 36.18 151.52 35 153.2 35 153.2 34.49 150.95 34.49 150.95 38.53"/><path class="cls-1" d="M160.68,35.06a2.64,2.64,0,0,0-.86-.15c-.72,0-1.29.38-1.29,1.1,0,1.26,1.73,1,1.73,1.91a.72.72,0,0,1-.79.66,2.41,2.41,0,0,1-.83-.2l-.06.54a2.61,2.61,0,0,0,.82.17c.8,0,1.47-.34,1.47-1.2,0-1.33-1.73-1.15-1.73-1.93,0-.42.38-.54.7-.54a1.68,1.68,0,0,1,.75.17Z" transform="translate(-0.5 -0.5)"/><polygon class="cls-1" points="195.73 38.53 197.99 38.53 197.99 38.02 196.31 38.02 196.31 34.49 195.73 34.49 195.73 38.53"/><polygon class="cls-1" points="203.26 38.53 203.83 38.53 203.83 35 205.08 35 205.08 34.49 202.01 34.49 202.01 35 203.26 35 203.26 38.53"/><path class="cls-1" d="M210.28,39h1.18A1.91,1.91,0,0,0,213.6,37a2,2,0,0,0-2.14-2h-1.18Zm.57-3.53h.67A1.41,1.41,0,0,1,213,37a1.36,1.36,0,0,1-1.54,1.52h-.61v-3Z" transform="translate(-0.5 -0.5)"/><path class="cls-2" d="M12.93,29.8l0,.25A1.57,1.57,0,0,0,14.7,31.4h7.64a1.61,1.61,0,0,0,1.8-1.59c0-.86-.43-1.16-1.1-1.52-.18-.1-.37-.21-.56-.34A2,2,0,0,1,21.57,26V19.22c0-2.24,1.07-3.69,2.72-3.69s2.35,1.47,3.27,4.75A31.25,31.25,0,0,1,29,26.93c0,.48-.36.69-.89,1a5.7,5.7,0,0,0-.5.31,1.82,1.82,0,0,0-1,1.55c0,1.32,1.06,1.59,2.64,1.59h6.62c1.19,0,2.6-.28,2.6-1.59,0-.76-.47-1.14-1.09-1.54a7.61,7.61,0,0,1-.62-.45c-.82-.71-1.35-2.76-2.08-5.61l-1.23-4.72a11.16,11.16,0,0,0-2.54-5.1,5.74,5.74,0,0,0-4.23-1.68c-1.9,0-3.46.82-5.21,2.73l-.41.45-.36-.5a5.84,5.84,0,0,0-4.91-2.68,8,8,0,0,0-5.47,2.39l-.78.7-.1-1.72C9.35,11,9.19,10.5,8.46,10.5a2.4,2.4,0,0,0-1.18.4L2.64,13.43C1.32,14.13.5,14.74.5,15.59S1,16.7,1.86,17l.3.12c.83.34.91.58.91,1.6V26A2.05,2.05,0,0,1,2.23,28c-.2.13-.38.23-.56.33-.57.31-1.1.6-1.1,1.52A1.57,1.57,0,0,0,2.33,31.4h7.85A1.62,1.62,0,0,0,12,30.05l0-.24,0-.26c-.08-.67-.48-.93-1.08-1.26a4.46,4.46,0,0,1-.52-.31,2,2,0,0,1-.92-2V19.23a3.83,3.83,0,0,1,3.48-3.77c1.6,0,2.51,1.42,2.51,3.9V26A2.05,2.05,0,0,1,14.56,28l-.45.27c-.66.37-1.07.64-1.15,1.32Z" transform="translate(-0.5 -0.5)"/><path class="cls-2" d="M50.15,10.67a10.48,10.48,0,0,0-8,3.26,10.55,10.55,0,0,0-3,7.56c0,6.42,4.65,10.4,12.13,10.4a12.62,12.62,0,0,0,8.24-2.59,8.63,8.63,0,0,0,3.06-6.83,11.1,11.1,0,0,0-4.08-8.76h0A13,13,0,0,0,50.15,10.67Zm2.16,17.8c-2,0-3.63-1.43-5.1-4.49a14.38,14.38,0,0,1-1.54-6.12c0-2.55,1.23-4.19,3.14-4.19,1.49,0,3.64,1.23,5,4a15,15,0,0,1,1.8,6.5C55.66,26.77,54.35,28.47,52.31,28.47Z" transform="translate(-0.5 -0.5)"/><path class="cls-2" d="M77,10.66a12.49,12.49,0,0,0-8.31,2.92,10.56,10.56,0,0,0-3.87,7.91A9.79,9.79,0,0,0,68,29a12.18,12.18,0,0,0,8.34,2.87,10.5,10.5,0,0,0,7.9-3.09c1.24-1.29,1.87-2.36,1.87-3.18a1.18,1.18,0,0,0-1.17-1.24c-.58,0-1,.4-1.67,1.07-.22.22-.42.42-.64.62a7,7,0,0,1-4.82,2.06c-3.32,0-5.63-3.11-5.63-7.57,0-4.18,1.64-6.77,4.28-6.77,1.6,0,3,1.19,3.61,3.11q.15.45.27.84l0,.15c.45,1.49.72,2.1,1.47,2.1a1.49,1.49,0,0,0,1.27-1l2-4.18a1.9,1.9,0,0,0,.23-.89c0-.59-1-1.38-2.5-2.06A14.9,14.9,0,0,0,77,10.66Z" transform="translate(-0.5 -0.5)"/><path class="cls-2" d="M135.93,2.53c-2.8,0-5.55,2-5.55,4a1.82,1.82,0,0,0,.51,1.32,2.87,2.87,0,0,0,2,.69c2.79,0,5.34-1.9,5.34-4A2.09,2.09,0,0,0,135.93,2.53Z" transform="translate(-0.5 -0.5)"/><path class="cls-2" d="M129.39,14.42l.06.51c.07.6.51.82,1.23,1.1a2.35,2.35,0,0,1,.29.12,1.25,1.25,0,0,1,.6.37,2,2,0,0,1,.13.92V26a2,2,0,0,1-.85,1.95,4.38,4.38,0,0,1-.42.28l-.09,0c-.68.41-1.13.74-1.13,1.57A1.57,1.57,0,0,0,131,31.4h7.85a1.61,1.61,0,0,0,1.8-1.59c0-.84-.43-1.16-1.1-1.56l-.15-.09a2.84,2.84,0,0,1-.39-.25,2,2,0,0,1-.88-1.94V12.25c0-1.4-.46-1.59-1-1.59a1.87,1.87,0,0,0-.83.25l-.32.14-.1,0-4.65,2a4.49,4.49,0,0,0-1.45.88ZM94.4.5a2,2,0,0,0-1.15.41l-4.89,3c-1.29.76-1.79,1.29-1.79,1.9,0,.84.55,1.09,1.43,1.42l.16.06a1.45,1.45,0,0,1,.67.43,2,2,0,0,1,.15,1V26a2.07,2.07,0,0,1-.85,2l-.42.27-.09,0c-.68.41-1.13.74-1.13,1.57a1.57,1.57,0,0,0,1.75,1.59h7.85a1.55,1.55,0,0,0,1.75-1.59c0-.89-.54-1.22-1.11-1.57l-.49-.32a2,2,0,0,1-.9-2V23.1l2.41-2.22L102.32,30c.48,1,.74,1.38,1.65,1.38h4.68a1.33,1.33,0,0,0,1.31-.82l.31-.77-.35-.69a1.66,1.66,0,0,0-.82-.71c-1-.53-1.51-1.53-2.21-2.93-.09-.16-.16-.3-.22-.43l-4.22-8.58.24-.25a5.57,5.57,0,0,1,2.73-1.87l.13,0c1.24-.31,2-.58,2-1.72s-.63-1.42-2.09-1.42H99.35c-1.72,0-1.92.79-1.92,1.38s.53,1.06,1.17,1.38l.66.36-.2.42a12,12,0,0,1-2.78,3.06l-.83.75V1.92C95.44.66,94.88.5,94.4.5Zm16.09,29.32.37.7a1.83,1.83,0,0,0,1.69.87h7.93a1.55,1.55,0,0,0,1.75-1.59c0-.88-.54-1.2-1.11-1.55l-.17-.1c-.13-.08-.26-.16-.38-.25a2,2,0,0,1-.83-1.94V21c0-2.84,1.06-4.28,3.14-4.28.94,0,1.4.45,2.07,1.46.48.79.76,1.15,1.26,1.15.75,0,1-.59,1.41-1.93.08-.27.16-.54.26-.82.22-.67.41-1.25.6-1.78l.48-1.34a5.36,5.36,0,0,0,.37-1.4c0-1.27-1.84-1.46-2.94-1.46-2,0-3.83,1-5.8,3.3l-.88,1V12c0-1.4-.46-1.59-.95-1.59a2.35,2.35,0,0,0-1.19.41L113,13.47c-1.32.8-2.07,1.28-2.07,2s.54,1.05,1.42,1.38l.19.07c.76.27.84.51.84,1.34v7.55a2.09,2.09,0,0,1-.93,2c-.16.11-.35.21-.53.31a2.4,2.4,0,0,0-1.1,1Z" transform="translate(-0.5 -0.5)"/><path class="cls-2" d="M157.58,29.2l.08.88c.12,1.35.53,1.81,1.61,1.81a25.62,25.62,0,0,0,5.95-1c1.09-.3,1.25-1,1.25-1.37,0-.87-.55-1.19-1.12-1.53h0l.26-.43-.28.41c-.15-.09-.3-.17-.45-.28-.78-.54-.85-1-.85-2.12V1.92C164,.5,163.41.5,163.11.5A2.76,2.76,0,0,0,162,.86l-4.48,2.32c-1,.55-2,1.15-2,1.9s.52,1.06,1.32,1.36l.31.13c.55.22.64.62.64,1.42v4.12l-.73-.39a8.54,8.54,0,0,0-4-1,10.3,10.3,0,0,0-8.34,4.64,11.63,11.63,0,0,0-2.1,6.65A10.31,10.31,0,0,0,145,29a8.37,8.37,0,0,0,6.31,2.73,9.14,9.14,0,0,0,5.57-2Zm-3.25-2.41c-3,0-5.42-3.26-5.42-7.27,0-3.29,2-5.67,4.66-5.67,3,0,4.36,2.41,4.36,7.57a6.19,6.19,0,0,1-1.39,4.47A3,3,0,0,1,154.33,26.79Z" transform="translate(-0.5 -0.5)"/><path class="cls-2" d="M186.4,5.26c-2.64,0-4.68,1.73-6.06,5.15l-.12.29-.31,0A15.31,15.31,0,0,0,172.1,13a6.32,6.32,0,0,0-2.9,5.32,5.63,5.63,0,0,0,2.27,4.7l.53.43-.58.37c-2.2,1.41-3.32,2.82-3.32,4.2,0,.94.63,1.68,1.86,2.2l.83.35-.73.52c-1.69,1.2-2,2.28-2,3,0,1.42,1.09,2.58,3.15,3.37a26.22,26.22,0,0,0,9,1.21c3.89,0,6.87-.5,8.85-1.5a4.84,4.84,0,0,0,3-4.56c0-3.53-2.44-5-9.32-5.6h0l-5-.46c-2.48-.24-3-.44-3.24-.79l-.08-.12V25.4a.86.86,0,0,1,.35-.64l.19-.19.26.06a18.3,18.3,0,0,0,4.11.39A13.3,13.3,0,0,0,187,22.91a6.22,6.22,0,0,0,2.87-5c0-2.93-2-5.19-5.85-6.55l-.91-.32.79-.56a1.75,1.75,0,0,1,1.05-.31,4.58,4.58,0,0,1,1.16.23,5.29,5.29,0,0,0,1.45.27,2.23,2.23,0,0,0,2.3-2.22C189.88,6.47,188.55,5.26,186.4,5.26ZM175.25,25.05Zm5,10.22c-4.41,0-6.47-.57-6.47-1.79a2.65,2.65,0,0,1,.84-1.72l.17-.19,3,.33,1.42.15.48.05c3.91.41,5.69.6,5.69,1.68S183.85,35.27,180.23,35.27Zm-.79-13c-2,0-3.39-1.7-3.39-4.24a5,5,0,0,1,1.22-3.65,3.16,3.16,0,0,1,2.29-.92c2.05,0,3.27,1.68,3.27,4.49S181.69,22.23,179.44,22.23Z" transform="translate(-0.5 -0.5)"/><path class="cls-2" d="M203.19,10.68a11.17,11.17,0,0,0-7.52,3,9.93,9.93,0,0,0-3.22,7.49,10.44,10.44,0,0,0,3.21,7.68,11.91,11.91,0,0,0,8.25,3.06,13.2,13.2,0,0,0,8.62-3.21A3.75,3.75,0,0,0,214,26.32a1.16,1.16,0,0,0-1.18-1.18,4.72,4.72,0,0,0-2.13,1.05l-.29.19-.54.35a7.24,7.24,0,0,1-3.75,1.07,5.43,5.43,0,0,1-5.37-3.91l-.18-.49,11.31-3.7a8.8,8.8,0,0,0,.89-.34l.51-.28-.05-.57a9,9,0,0,0-2-4.09A9.56,9.56,0,0,0,203.19,10.68Zm-4.08,7c0-2.28,1.19-3.81,3-3.81,2.18,0,3.94,2.36,3.94,4.32,0,.52-.67.76-.87.83l-5.45,1.88-.13-.52" transform="translate(-0.5 -0.5)"/></svg>