<svg id="Layer_1" data-name="Layer 1" xmlns="http://www.w3.org/2000/svg" viewBox="0 0 214.46 39.11"><defs><style>.cls-1,.cls-3{fill:none;}.cls-1{stroke:#1d1d1b;stroke-width:0.05px;}.cls-2,.cls-4{fill:#fff;}.cls-2{fill-rule:evenodd;}</style></defs><title>logo</title><path class="cls-1" d="M32.32,33.3"/><polygon class="cls-2" points="2.16 39.03 4.42 39.03 4.42 38.52 2.74 38.52 2.74 34.99 2.16 34.99 2.16 39.03"/><path class="cls-2" d="M8.76,39h.6l.41-1h2l.41,1h.63l-1.7-4h-.61Zm2.8-1.49H10l.8-2Z"/><path class="cls-2" d="M17.48,39h1.07c.81,0,1.53-.21,1.53-1.08a1,1,0,0,0-.93-1h0A.94.94,0,0,0,20,36c0-.75-.57-1-1.4-1H17.48Zm.57-1.84h.38c.49,0,1,.09,1,.71s-.47.66-1,.66h-.43Zm0-1.73h.61c.33,0,.74.12.74.61s-.47.64-1,.64h-.32Z"/><polygon class="cls-2" points="25.21 39.03 27.46 39.03 27.46 38.52 25.79 38.52 25.79 37.19 27.31 37.19 27.31 36.68 25.79 36.68 25.79 35.5 27.46 35.5 27.46 34.99 25.21 34.99 25.21 39.03"/><polygon class="cls-2" points="32.53 39.03 34.78 39.03 34.78 38.52 33.1 38.52 33.1 34.99 32.53 34.99 32.53 39.03"/><path class="cls-2" d="M41.47,35.06a2.57,2.57,0,0,0-.85-.14c-.73,0-1.29.38-1.29,1.1,0,1.26,1.72,1,1.72,1.91a.72.72,0,0,1-.79.66,2.25,2.25,0,0,1-.83-.2l-.06.54a2.61,2.61,0,0,0,.83.17c.8,0,1.46-.34,1.46-1.2,0-1.34-1.72-1.16-1.72-1.93,0-.43.38-.54.7-.54a1.68,1.68,0,0,1,.75.17Z"/><path class="cls-2" d="M54.51,39h.6l.41-1h2l.41,1h.63l-1.7-4h-.61Zm2.8-1.49h-1.6l.8-2Z"/><polygon class="cls-2" points="63.26 39.03 63.83 39.03 63.83 35.71 63.84 35.71 65.66 39.03 66.4 39.03 66.4 34.99 65.82 34.99 65.82 38.24 65.81 38.24 64.04 34.99 63.26 34.99 63.26 39.03"/><path class="cls-2" d="M71.54,39h1.18A1.9,1.9,0,0,0,74.86,37a2,2,0,0,0-2.14-2H71.54Zm.57-3.53h.68A1.4,1.4,0,0,1,74.25,37a1.35,1.35,0,0,1-1.53,1.52h-.61Z"/><polygon class="cls-2" points="88.23 39.03 88.8 39.03 88.8 35.71 88.81 35.71 90.63 39.03 91.37 39.03 91.37 34.99 90.79 34.99 90.79 38.24 90.78 38.24 89.01 34.99 88.23 34.99 88.23 39.03"/><path class="cls-2" d="M96.1,39h.6l.41-1h2l.41,1h.63l-1.7-4h-.61Zm2.8-1.49H97.3l.8-2Z"/><polygon class="cls-2" points="104.86 39.03 105.43 39.03 105.43 35.53 105.44 35.53 106.77 39.03 107.34 39.03 108.67 35.53 108.68 35.53 108.68 39.03 109.25 39.03 109.25 34.99 108.31 34.99 107.07 38.35 105.81 34.99 104.86 34.99 104.86 39.03"/><polygon class="cls-2" points="114.47 39.03 116.72 39.03 116.72 38.52 115.04 38.52 115.04 37.19 116.57 37.19 116.57 36.68 115.04 36.68 115.04 35.5 116.72 35.5 116.72 34.99 114.47 34.99 114.47 39.03"/><path class="cls-2" d="M122.33,35.5h.49c.36,0,.89.18.89.69a.73.73,0,0,1-.81.72h-.57ZM121.76,39h.57V37.42h.57c.72,0,1.42-.32,1.42-1.22S123.64,35,122.81,35h-1Z"/><polygon class="cls-2" points="129.14 39.03 131.4 39.03 131.4 38.52 129.72 38.52 129.72 34.99 129.14 34.99 129.14 39.03"/><path class="cls-2" d="M135.74,39h.6l.41-1h2l.41,1h.62l-1.69-4h-.61Zm2.79-1.49h-1.6l.8-2Z"/><polygon class="cls-2" points="144.86 39.03 145.44 39.03 145.44 35.5 146.69 35.5 146.69 34.99 143.62 34.99 143.62 35.5 144.86 35.5 144.86 39.03"/><polygon class="cls-2" points="151.45 39.03 153.7 39.03 153.7 38.52 152.02 38.52 152.02 37.19 153.55 37.19 153.55 36.68 152.02 36.68 152.02 35.5 153.7 35.5 153.7 34.99 151.45 34.99 151.45 39.03"/><path class="cls-2" d="M160.68,35.06a2.62,2.62,0,0,0-.86-.14c-.72,0-1.29.38-1.29,1.1,0,1.26,1.73,1,1.73,1.91a.72.72,0,0,1-.79.66,2.31,2.31,0,0,1-.84-.2l0,.54a2.55,2.55,0,0,0,.82.17c.81,0,1.47-.34,1.47-1.2,0-1.34-1.73-1.16-1.73-1.93,0-.43.38-.54.7-.54a1.75,1.75,0,0,1,.76.17Z"/><polygon class="cls-2" points="196.23 39.03 198.49 39.03 198.49 38.52 196.81 38.52 196.81 34.99 196.23 34.99 196.23 39.03"/><polygon class="cls-2" points="203.76 39.03 204.33 39.03 204.33 35.5 205.58 35.5 205.58 34.99 202.51 34.99 202.51 35.5 203.76 35.5 203.76 39.03"/><path class="cls-2" d="M210.28,39h1.18A1.9,1.9,0,0,0,213.6,37a2,2,0,0,0-2.14-2h-1.18Zm.57-3.53h.67A1.4,1.4,0,0,1,213,37a1.35,1.35,0,0,1-1.53,1.52h-.61Z"/><path class="cls-3" d="M153.57,14.34c-2.41,0-4.15,2.18-4.15,5.17,0,3.74,2.2,6.78,4.91,6.78,1.95,0,3.11-1.83,3.11-4.88C157.44,15.07,155.23,14.34,153.57,14.34Z"/><path class="cls-3" d="M179.43,21.73c1.24,0,2.9-.4,2.9-3.82,0-1.2-.27-4-2.77-4-1.86,0-3,1.56-3,4.07C176.54,20.26,177.67,21.73,179.43,21.73Z"/><path class="cls-3" d="M53.42,17.88c-1.32-2.56-3.27-3.71-4.61-3.71-1.63,0-2.64,1.42-2.64,3.7a13.8,13.8,0,0,0,1.49,5.89C49,26.64,50.51,28,52.31,28s2.85-1.46,2.85-3.82A14.54,14.54,0,0,0,53.42,17.88Z"/><path class="cls-3" d="M184.82,33.77c0-.62-2.2-.85-5.24-1.17l-1.91-.21-2.7-.3a2.22,2.22,0,0,0-.71,1.39c0,.38.58,1.29,6,1.29C183.27,34.77,184.82,34.43,184.82,33.77Z"/><path class="cls-3" d="M14.94,26V19.34c0-1.27-.26-3.4-2-3.4a3.35,3.35,0,0,0-3,3.28V26a1.54,1.54,0,0,0,.68,1.54,5.09,5.09,0,0,0,.5.3,2.09,2.09,0,0,1,1.33,1.64,2.12,2.12,0,0,1,1.32-1.65c.16-.09.33-.18.49-.29A1.56,1.56,0,0,0,14.94,26Z"/><path class="cls-3" d="M205,18.51c.29-.09.52-.25.52-.35,0-1.72-1.58-3.82-3.44-3.82-1.5,0-2.47,1.3-2.47,3.32a10.39,10.39,0,0,0,.45,2.56Z"/><path class="cls-4" d="M37.62,27.84a6.23,6.23,0,0,1-.56-.41h0c-.7-.59-1.24-2.71-1.93-5.38l-1.23-4.69A11.53,11.53,0,0,0,31.23,12a6.18,6.18,0,0,0-4.59-1.83c-2,0-3.73.87-5.58,2.89a6.27,6.27,0,0,0-5.3-2.89A8.56,8.56,0,0,0,10,12.73l0-.68c0-.71-.1-2.05-1.45-2.05A2.86,2.86,0,0,0,7,10.47L2.39,13C1.18,13.64,0,14.37,0,15.59s.89,1.6,1.68,1.91l.31.12c.57.24.58.24.58,1.13V26c0,.93-.2,1.24-.62,1.54q-.25.16-.51.3a2.09,2.09,0,0,0,.9,4h7.85a2.11,2.11,0,0,0,2.27-1.79,2.07,2.07,0,0,0,2.24,1.79h7.64a2.1,2.1,0,0,0,2.29-2.08,2.06,2.06,0,0,0-1.35-2,5.92,5.92,0,0,1-.52-.31,1.53,1.53,0,0,1-.7-1.53V19.22c0-2,.85-3.19,2.22-3.19,1.2,0,1.83,1,2.79,4.39a31.22,31.22,0,0,1,1.41,6.52c0,.16-.08.24-.65.58l-.52.32h0a2.32,2.32,0,0,0-1.22,2c0,2.08,2.21,2.08,3.15,2.08h6.62c2.7,0,3.1-1.3,3.1-2.08A2.3,2.3,0,0,0,37.62,27.84ZM12.46,29.49a2.09,2.09,0,0,0-1.33-1.64,5.09,5.09,0,0,1-.5-.3A1.54,1.54,0,0,1,10,26V19.22a3.35,3.35,0,0,1,3-3.28c1.75,0,2,2.13,2,3.4V26a1.56,1.56,0,0,1-.67,1.54c-.16.11-.33.2-.49.29A2.12,2.12,0,0,0,12.46,29.49Zm24.95.68a2.43,2.43,0,0,1-1.57.34H29.22c-1.76,0-1.76-.34-1.76-.7s.06-.42.64-.83l.43-.27c.6-.35,1.34-.78,1.34-1.77A32.18,32.18,0,0,0,28.4,20c-.86-3.06-1.71-5.4-4.12-5.4-2.16,0-3.61,1.84-3.61,4.58V26A2.86,2.86,0,0,0,22,28.7a6.88,6.88,0,0,0,.61.36c.58.33.64.39.64.75,0,.63-.64.7-.91.7H14.7c-.87,0-.87-.53-.87-.7,0-.4.09-.46.63-.76a5.87,5.87,0,0,0,.59-.36A2.94,2.94,0,0,0,16.32,26V19.34c0-3-1.27-4.78-3.39-4.78a4.77,4.77,0,0,0-4.37,4.66V26a2.91,2.91,0,0,0,1.27,2.67,5.85,5.85,0,0,0,.63.38c.58.33.64.39.64.75,0,.63-.64.7-.91.7H2.34c-.87,0-.87-.53-.87-.7,0-.36.05-.42.64-.75a6.29,6.29,0,0,0,.62-.37A2.93,2.93,0,0,0,4,26V18.75c0-1.13-.1-1.86-1.44-2.41l-.33-.13c-.8-.32-.8-.36-.8-.62S1.9,14.83,3,14.22l4.68-2.55a1.49,1.49,0,0,1,.72-.28,3,3,0,0,1,.08.73L8.74,16l1.12-1.22c2-2.18,3.85-3.19,5.9-3.19s3.4,1,4.63,3l.51.83.62-.75c1.8-2.16,3.33-3.08,5.12-3.08,3,0,4.81,1.88,5.91,6.1l1.23,4.69c.88,3.42,1.38,5.25,2.37,6.09a6.19,6.19,0,0,0,.7.51c.56.37.7.5.7.82A.43.43,0,0,1,37.41,30.17Z"/><path class="cls-4" d="M58.75,13.33a13.48,13.48,0,0,0-8.59-3.16,10.94,10.94,0,0,0-8.39,3.41,11.09,11.09,0,0,0-3.19,7.92c0,6.72,4.84,10.9,12.63,10.9a13.08,13.08,0,0,0,8.56-2.71A9.15,9.15,0,0,0,63,22.47,11.59,11.59,0,0,0,58.75,13.33Zm.13,15.3A11.72,11.72,0,0,1,51.21,31C44.17,31,40,27.45,40,21.5a9.73,9.73,0,0,1,2.8-6.95,9.63,9.63,0,0,1,7.4-3,12.07,12.07,0,0,1,7.69,2.82,10.27,10.27,0,0,1,3.76,8.09A7.78,7.78,0,0,1,58.88,28.63Z"/><path class="cls-4" d="M48.81,12.78c-2.45,0-4,2-4,5.09a15.19,15.19,0,0,0,1.63,6.5c1.61,3.36,3.54,5,5.9,5,2.57,0,4.24-2,4.24-5.21a15.93,15.93,0,0,0-1.89-6.89C53.25,14.54,51,12.78,48.81,12.78ZM52.31,28c-1.8,0-3.28-1.33-4.65-4.21a13.8,13.8,0,0,1-1.49-5.89c0-2.28,1-3.7,2.64-3.7,1.34,0,3.29,1.15,4.61,3.71a14.54,14.54,0,0,1,1.74,6.27C55.16,26.51,54.07,28,52.31,28Z"/><path class="cls-4" d="M84.89,23.84a3.06,3.06,0,0,0-2,1.22c-.19.19-.39.39-.62.6a6.46,6.46,0,0,1-4.48,1.93c-3,0-5.12-2.9-5.12-7.07,0-3.86,1.44-6.26,3.77-6.26,1.38,0,2.58,1.06,3.14,2.77.12.36.23.69.32,1,.42,1.37.75,2.45,2,2.45a2,2,0,0,0,1.71-1.27l2-4.18a2.47,2.47,0,0,0,.28-1.11c0-1.18-2-2.15-2.8-2.52a15.46,15.46,0,0,0-6-1.21,13,13,0,0,0-8.63,3,11.06,11.06,0,0,0-4,8.29,10.29,10.29,0,0,0,3.33,7.86,12.67,12.67,0,0,0,8.67,3,11,11,0,0,0,8.26-3.25c1.35-1.4,2-2.55,2-3.52A1.67,1.67,0,0,0,84.89,23.84ZM76.28,31c-6.35,0-10.62-3.81-10.62-9.47a9.68,9.68,0,0,1,3.56-7.24A11.61,11.61,0,0,1,77,11.56c4.1,0,7.16,1.78,7.45,2.38a1.24,1.24,0,0,1-.13.45l-2,4.18c-.25.5-.41.5-.47.5h0a4.69,4.69,0,0,1-.59-1.47c-.09-.3-.2-.64-.32-1-.75-2.29-2.46-3.72-4.46-3.72-3.13,0-5.16,3-5.16,7.65,0,5,2.68,8.46,6.51,8.46a7.82,7.82,0,0,0,5.4-2.28h0c.25-.23.48-.46.68-.66.41-.41.8-.81,1-.81s.27.26.27.37c0,.33-.21,1.1-1.62,2.55A9.5,9.5,0,0,1,76.28,31Z"/><path class="cls-4" d="M132.93,9.07c3,0,5.84-2.14,5.84-4.49A2.6,2.6,0,0,0,135.92,2c-3.11,0-6,2.21-6,4.54C129.87,8.08,131.07,9.07,132.93,9.07Zm3-5.66c.35,0,1.46.09,1.46,1.17,0,1.56-2.2,3.1-4.45,3.1-.63,0-1.67-.15-1.67-1.12C131.26,5.14,133.41,3.41,135.92,3.41Z"/><path class="cls-4" d="M139.76,27.82l-.48-.31A1.55,1.55,0,0,1,138.6,26V12.25c0-.51,0-2.08-1.45-2.08a2.54,2.54,0,0,0-1.06.29l-.3.14h0l-4.73,2.07a5.09,5.09,0,0,0-1.61,1,5.78,5.78,0,0,0,.4-1.57c0-.74-.45-2-3.44-2-2.19,0-4.1,1-6.18,3.47V12c0-.52,0-2.09-1.46-2.09a2.79,2.79,0,0,0-1.45.48l-4.56,2.7c-1.29.78-2.32,1.39-2.32,2.41,0,1.19.93,1.54,1.75,1.85l.19.07c.51.18.51.18.51.87V25.8c0,1-.24,1.3-.71,1.62l-.52.31a2.8,2.8,0,0,0-1.28,1.17,2.3,2.3,0,0,0-1-.94l-.07,0c-.81-.42-1.27-1.34-2-2.73l-.3-.59-4-8a5.23,5.23,0,0,1,2.5-1.73l.1,0c1.13-.28,2.41-.6,2.41-2.21,0-1.92-2-1.92-2.59-1.92H99.34c-2,0-2.42,1-2.42,1.88a2.07,2.07,0,0,0,1.44,1.83l.24.12a11.25,11.25,0,0,1-2.66,2.9V1.92C95.94.33,95.11,0,94.4,0A2.53,2.53,0,0,0,93,.49l-4.88,3c-1.22.72-2,1.4-2,2.33,0,1.23.94,1.58,1.76,1.89l.16.06c.33.13.41.21.42.24a2.56,2.56,0,0,1,.07.76V26c0,.93-.21,1.24-.64,1.54-.16.12-.32.21-.48.31a2.19,2.19,0,0,0-1.37,2,2.05,2.05,0,0,0,2.25,2.08h7.85a2.06,2.06,0,0,0,2.26-2.08,2.2,2.2,0,0,0-1.35-2l-.47-.3A1.55,1.55,0,0,1,95.86,26V23.32l1.75-1.62,4.27,8.53c.49,1,.88,1.66,2.1,1.66h4.68a1.81,1.81,0,0,0,1.77-1.13,2.32,2.32,0,0,0,2.13,1.13h7.93a2.06,2.06,0,0,0,2.26-2.08,2.19,2.19,0,0,0-1.37-2c-.16-.1-.33-.19-.49-.31-.43-.3-.63-.61-.63-1.54V21c0-3.78,2-3.78,2.64-3.78s1,.25,1.65,1.25c.44.7.86,1.37,1.68,1.37,1.21,0,1.54-1.13,1.9-2.32.07-.25.15-.5.24-.78.21-.67.41-1.24.59-1.76.11.93.87,1.24,1.56,1.5l.25.1h0c.34.12.38.19.38.19a2.52,2.52,0,0,1,.05.63V26c0,.93-.19,1.23-.64,1.54-.15.11-.32.21-.48.31a2.19,2.19,0,0,0-1.37,2A2.06,2.06,0,0,0,131,31.89h7.84a2.1,2.1,0,0,0,2.3-2.08A2.19,2.19,0,0,0,139.76,27.82Zm-36.63,1.81L98,19.43l-3.56,3.28V26a2.92,2.92,0,0,0,1.26,2.67c.19.14.38.25.55.36.57.34.68.44.68.81s-.29.7-.87.7H88.24c-.57,0-.86-.24-.86-.7s.11-.45.69-.8a6.86,6.86,0,0,0,.58-.37A2.92,2.92,0,0,0,89.87,26V8.75c0-1.18-.14-1.79-1.37-2.29l-.18-.06c-.86-.33-.86-.38-.86-.6s.13-.41,1.35-1.13l4.91-3h0a1.18,1.18,0,0,1,.67-.26h.09a1.53,1.53,0,0,1,.06.53v18.5l1.15-1c3.82-3.23,4.33-4.39,4.33-5.09s-.6-1-1-1.22-.68-.39-.68-.59,0-.49,1-.49h6.12c1.2,0,1.2.26,1.2.53,0,.45-.09.55-1.36.87l-.09,0A7.26,7.26,0,0,0,101.7,16l-.32.35,4.38,8.91c.12.22.22.42.31.61.79,1.56,1.36,2.69,2.56,3.32l0,0c.51.29.54.3.54.81a.47.47,0,0,1-.54.53H104C103.58,30.51,103.55,30.51,103.13,29.63ZM126.8,17.16c-.18.6-.38,1.28-.56,1.32a4.23,4.23,0,0,1-.52-.73v0c-.68-1-1.36-1.87-2.81-1.87s-4,.68-4,5.17V26a2.93,2.93,0,0,0,1.22,2.67,6.86,6.86,0,0,0,.58.37c.58.35.69.45.69.8s-.29.7-.87.7h-7.93c-.37,0-1-.1-1-.75,0-.36.13-.47.76-.82.19-.11.41-.23.62-.38a3,3,0,0,0,1.32-2.76V18.25c0-1.13-.22-1.75-1.43-2.17l-.17-.07c-.85-.32-.85-.37-.85-.55s1.11-.9,1.65-1.22l4.55-2.7a1.56,1.56,0,0,1,.74-.28,2.17,2.17,0,0,1,.07.7v5.75L120.08,16c2.34-3.19,4.17-4.49,6.32-4.49,1.49,0,2,.35,2,.58a12.58,12.58,0,0,1-.56,1.79c-.23.66-.53,1.48-.84,2.47C127,16.64,126.87,16.91,126.8,17.16Zm12,13.35H131c-.58,0-.87-.24-.87-.7s.11-.45.69-.8c.18-.11.38-.23.58-.37A2.92,2.92,0,0,0,132.61,26V17.44c0-1.12-.19-1.7-1.33-2.12l-.26-.1c-.69-.27-.69-.3-.69-.43s.09-.33,1.27-.85l4.72-2.06.36-.16a1.31,1.31,0,0,1,.46-.16,2.08,2.08,0,0,1,.07.69V26a2.91,2.91,0,0,0,1.27,2.67c.19.14.39.26.57.37.58.35.69.44.69.8C139.74,30.41,139.17,30.51,138.83,30.51Z"/><path class="cls-4" d="M165.6,27.54l-.45-.28c-.55-.39-.63-.6-.63-1.71V1.92q0-1.92-1.41-1.92a3.08,3.08,0,0,0-1.37.42l-4.48,2.32C156,3.39,155,4.06,155,5.08c0,1.21,1,1.57,1.64,1.83l.31.12c.22.09.33.15.33,1v3.3a8.85,8.85,0,0,0-4.25-1,10.8,10.8,0,0,0-8.75,4.86A12.12,12.12,0,0,0,142,22a10.79,10.79,0,0,0,2.58,7.29,8.83,8.83,0,0,0,6.68,2.9,9.67,9.67,0,0,0,5.86-2.09c.12,1.31.53,2.26,2.11,2.26a25.8,25.8,0,0,0,6.09-1A1.9,1.9,0,0,0,167,29.51,2.17,2.17,0,0,0,165.6,27.54ZM159.27,31c-.47,0-.52-.11-.58-.23a7,7,0,0,1-.2-2l0-1.48-1.12,1a9.12,9.12,0,0,1-6,2.61c-4.64,0-7.88-3.62-7.88-8.8a10.73,10.73,0,0,1,2-6.14A9.42,9.42,0,0,1,153,11.64a7.82,7.82,0,0,1,4.55,1.44l1.08.73V8c0-1.07-.19-1.82-1.18-2.24h0l-.34-.13c-.74-.29-.74-.33-.74-.54s.16-.37,1.57-1.12l4.46-2.31a2.41,2.41,0,0,1,.72-.26,2.28,2.28,0,0,1,0,.53V25.55a2.85,2.85,0,0,0,1.23,2.84l.53.34c.59.35.69.44.69.78,0,.11,0,.35-.59.51A24.74,24.74,0,0,1,159.27,31Z"/><path class="cls-4" d="M153.57,13c-3.21,0-5.54,2.76-5.54,6.56a9.42,9.42,0,0,0,1.83,5.77,5.72,5.72,0,0,0,4.47,2.39c2.77,0,4.49-2.4,4.49-6.26C158.82,15.8,157.06,13,153.57,13Zm.76,13.34c-2.71,0-4.91-3-4.91-6.78,0-3,1.74-5.17,4.15-5.17,1.66,0,3.87.73,3.87,7.07C157.44,24.46,156.28,26.29,154.33,26.29Z"/><path class="cls-4" d="M182.75,26.42l-5-.47c-.73-.06-2.67-.24-2.87-.55a0,0,0,0,1,0,0s0-.12.19-.26a18.86,18.86,0,0,0,4.23.4,13.74,13.74,0,0,0,8-2.2,6.67,6.67,0,0,0,3.08-5.45c0-3.14-2.19-5.6-6.18-7a1.24,1.24,0,0,1,.76-.22,4,4,0,0,1,1,.21,5.69,5.69,0,0,0,1.6.29,2.73,2.73,0,0,0,2.8-2.71c0-2.22-1.56-3.65-4-3.65-2.86,0-5,1.84-6.51,5.46a15.61,15.61,0,0,0-8.06,2.33,6.79,6.79,0,0,0-3.12,5.73,6.14,6.14,0,0,0,2.45,5.08c-2.36,1.51-3.55,3.06-3.55,4.62,0,.85.41,1.92,2.17,2.66-1.83,1.32-2.25,2.53-2.25,3.38,0,1.14.6,2.74,3.47,3.83a26.6,26.6,0,0,0,9.16,1.25c4,0,7-.52,9.07-1.55a5.36,5.36,0,0,0,3.31-5C192.53,28.16,188.79,27,182.75,26.42Zm-2.6,11.3c-6.94,0-11.25-1.42-11.25-3.69,0-.9,1-2,2.85-3l1.61-.89-1.79-.4C170.39,29.5,169,29,169,28c0-1.17,1.33-2.58,3.74-3.95l1-.55-.91-.62c-1.94-1.35-2.7-2.63-2.7-4.58,0-4,3.86-6.46,10.31-6.69l.46,0,.16-.43c1.25-3.36,3-5,5.38-5,1.66,0,2.6.82,2.6,2.26a1.36,1.36,0,0,1-1.41,1.33,4.55,4.55,0,0,1-1.21-.24A5.25,5.25,0,0,0,185,9.24a2.8,2.8,0,0,0-2.55,1.63l-.42.75.84.25c4,1.15,6.16,3.28,6.16,6,0,3.63-4.07,6.26-9.68,6.26a16.41,16.41,0,0,1-4.21-.44l-.32-.08-.27.19a2,2,0,0,0-1,1.58c0,1.58,2,1.76,4.13,1.95l5,.47c6.37.56,8.52,1.76,8.52,4.75C191.14,36,187.45,37.72,180.15,37.72Z"/><path class="cls-4" d="M179.43,23.12c1.6,0,4.28-.68,4.28-5.21,0-3.32-1.59-5.38-4.15-5.38s-4.41,2.2-4.41,5.46C175.15,21,176.91,23.12,179.43,23.12Zm.13-9.2c2.5,0,2.77,2.79,2.77,4,0,3.42-1.66,3.82-2.9,3.82-1.76,0-2.89-1.47-2.89-3.74C176.54,15.48,177.7,13.92,179.56,13.92Z"/><path class="cls-4" d="M179.72,31.22l-1.9-.2-3.37-.38-.23.24a3.71,3.71,0,0,0-1.35,2.6c0,2.36,3.72,2.67,7.36,2.67,2.89,0,6-.18,6-2.38C186.2,31.9,184.17,31.68,179.72,31.22Zm-5.46,2.26a2.22,2.22,0,0,1,.71-1.39l2.7.3,1.91.21c3,.32,5.24.55,5.24,1.17s-1.55,1-4.59,1C174.84,34.77,174.26,33.86,174.26,33.48Z"/><path class="cls-4" d="M212.8,24.64a4.92,4.92,0,0,0-2.41,1.13l-.82.53a6.66,6.66,0,0,1-3.48,1,5,5,0,0,1-4.9-3.59L212,20.17a7.24,7.24,0,0,0,1-.37l.8-.43-.07-.91a9.52,9.52,0,0,0-2.09-4.36,10,10,0,0,0-8.43-3.93,11.62,11.62,0,0,0-7.86,3.14,10.4,10.4,0,0,0-3.38,7.85,10.93,10.93,0,0,0,3.36,8,12.41,12.41,0,0,0,8.6,3.2,13.6,13.6,0,0,0,8.94-3.35,4.1,4.1,0,0,0,1.62-2.74A1.63,1.63,0,0,0,212.8,24.64ZM211.91,28a12.21,12.21,0,0,1-8,3,11,11,0,0,1-7.64-2.82,9.56,9.56,0,0,1-2.93-7,9.07,9.07,0,0,1,2.94-6.84,10.21,10.21,0,0,1,6.91-2.76,8.74,8.74,0,0,1,7.35,3.4,8.21,8.21,0,0,1,1.78,3.61,6.52,6.52,0,0,1-.74.28l-12.12,4,.2.65c1,3.36,3.3,5.22,6.44,5.22a8.15,8.15,0,0,0,4.2-1.2l.87-.57A5.3,5.3,0,0,1,212.8,26a.25.25,0,0,1,.28.28A3,3,0,0,1,211.91,28Z"/><path class="cls-4" d="M206.91,18.16c0-2.41-2.11-5.21-4.83-5.21-2.27,0-3.85,1.94-3.85,4.71a13.63,13.63,0,0,0,.7,3.65l.2.7,6.29-2.18A1.83,1.83,0,0,0,206.91,18.16Zm-4.83-3.82c1.86,0,3.44,2.1,3.44,3.82,0,.1-.23.26-.52.35l-4.94,1.71a10.39,10.39,0,0,1-.45-2.56C199.61,15.64,200.58,14.34,202.08,14.34Z"/></svg>